<svg xmlns="http://www.w3.org/2000/svg" width="37" height="42" viewBox="0 0 37 42">
  <metadata><?xpacket begin="﻿" id="W5M0MpCehiHzreSzNTczkc9d"?>
<x:xmpmeta xmlns:x="adobe:ns:meta/" x:xmptk="Adobe XMP Core 5.6-c138 79.159824, 2016/09/14-01:09:01        ">
   <rdf:RDF xmlns:rdf="http://www.w3.org/1999/02/22-rdf-syntax-ns#">
      <rdf:Description rdf:about=""/>
   </rdf:RDF>
</x:xmpmeta>
                                                                                                    
                                                                                                    
                                                                                                    
                                                                                                    
                                                                                                    
                                                                                                    
                                                                                                    
                                                                                                    
                                                                                                    
                                                                                                    
                                                                                                    
                                                                                                    
                                                                                                    
                                                                                                    
                                                                                                    
                                                                                                    
                                                                                                    
                                                                                                    
                                                                                                    
                                                                                                    
                           
<?xpacket end="w"?></metadata>
<defs>
    <style>
      .cls-1 {
        fill-rule: evenodd;
      }
    </style>
  </defs>
  <path id="Фигура_5" data-name="Фигура 5" class="cls-1" d="M1866.5,39a10.52,10.52,0,0,1,10.51,10.5V63.546l0.16,0.248,5.98,9.2h-33.31l5.99-9.2,0.16-.248V49.5A10.52,10.52,0,0,1,1866.5,39m0-1a11.5,11.5,0,0,0-11.51,11.5V63.25L1848,74h37l-6.99-10.749V49.5A11.5,11.5,0,0,0,1866.5,38h0Zm0.5,5.025A6.508,6.508,0,0,1,1872.98,49h1a7.5,7.5,0,0,0-6.98-6.975v1ZM1871.97,76a6.487,6.487,0,0,1-10.94,0h-1.17a7.5,7.5,0,0,0,13.27,0h-1.16Z" transform="translate(-1848 -38)"/>
</svg>
