<svg xmlns="http://www.w3.org/2000/svg" width="33" height="44" viewBox="0 0 33 44">
  <metadata><?xpacket begin="﻿" id="W5M0MpCehiHzreSzNTczkc9d"?>
<x:xmpmeta xmlns:x="adobe:ns:meta/" x:xmptk="Adobe XMP Core 5.6-c138 79.159824, 2016/09/14-01:09:01        ">
   <rdf:RDF xmlns:rdf="http://www.w3.org/1999/02/22-rdf-syntax-ns#">
      <rdf:Description rdf:about=""/>
   </rdf:RDF>
</x:xmpmeta>
                                                                                                    
                                                                                                    
                                                                                                    
                                                                                                    
                                                                                                    
                                                                                                    
                                                                                                    
                                                                                                    
                                                                                                    
                                                                                                    
                                                                                                    
                                                                                                    
                                                                                                    
                                                                                                    
                                                                                                    
                                                                                                    
                                                                                                    
                                                                                                    
                                                                                                    
                                                                                                    
                           
<?xpacket end="w"?></metadata>
<defs>
    <style>
      .cls-1 {
        fill-rule: evenodd;
      }
    </style>
  </defs>
  <path id="Фигура_4" data-name="Фигура 4" class="cls-1" d="M1811.51,40.3a55.638,55.638,0,0,0,6.1,8.21C1822.01,53.8,1827,59.8,1827,64.5a15.5,15.5,0,1,1-31,0c0-4.685,4.96-10.646,9.34-15.906a54.815,54.815,0,0,0,6.17-8.3M1811.5,37c0,5.917-16.5,18.387-16.5,27.5a16.5,16.5,0,0,0,33,0c0-9.113-16.5-21.667-16.5-27.5h0Zm9.47,28a9.489,9.489,0,0,1-8.97,8.974v1A10.474,10.474,0,0,0,1821.97,65h-1Z" transform="translate(-1795 -37)"/>
</svg>
